<?xml version="1.0" encoding="UTF-8"?>
<svg id="Layer_2" data-name="Layer 2" xmlns="http://www.w3.org/2000/svg" viewBox="0 0 1189.1 65.55">
  <defs>
    <style>
      .cls-1 {
        fill: none;
        stroke: #f63;
        stroke-linecap: round;
        stroke-miterlimit: 10;
        stroke-width: 3px;
      }
    </style>
  </defs>
  <g id="threads">
    <g>
      <g id="c">
        <line class="cls-1" x1="125.44" y1="33.05" x2="94.43" y2="2.04"/>
        <line class="cls-1" x1="125.44" y1="64.05" x2="63.43" y2="2.04"/>
        <line class="cls-1" x1="94.43" y1="64.05" x2="63.43" y2="33.05"/>
        <line class="cls-1" x1="125.44" y1="33.05" x2="94.43" y2="64.05"/>
        <line class="cls-1" x1="125.44" y1="2.04" x2="63.43" y2="64.05"/>
        <line class="cls-1" x1="94.43" y1="2.04" x2="63.43" y2="33.05"/>
      </g>
      <g id="c-2" data-name="c">
        <line class="cls-1" x1="63.51" y1="32.51" x2="32.5" y2="1.5"/>
        <line class="cls-1" x1="63.51" y1="63.51" x2="1.5" y2="1.5"/>
        <line class="cls-1" x1="32.5" y1="63.51" x2="1.5" y2="32.51"/>
        <line class="cls-1" x1="63.51" y1="32.51" x2="32.5" y2="63.51"/>
        <line class="cls-1" x1="63.51" y1="1.5" x2="1.5" y2="63.51"/>
        <line class="cls-1" x1="32.5" y1="1.5" x2="1.5" y2="32.51"/>
      </g>
      <g id="c-3" data-name="c">
        <line class="cls-1" x1="250.34" y1="33.05" x2="219.33" y2="2.04"/>
        <line class="cls-1" x1="250.34" y1="64.05" x2="188.33" y2="2.04"/>
        <line class="cls-1" x1="219.33" y1="64.05" x2="188.33" y2="33.05"/>
        <line class="cls-1" x1="250.34" y1="33.05" x2="219.33" y2="64.05"/>
        <line class="cls-1" x1="250.34" y1="2.04" x2="188.33" y2="64.05"/>
        <line class="cls-1" x1="219.33" y1="2.04" x2="188.33" y2="33.05"/>
      </g>
      <g id="c-4" data-name="c">
        <line class="cls-1" x1="188.41" y1="32.51" x2="157.4" y2="1.5"/>
        <line class="cls-1" x1="188.41" y1="63.51" x2="126.4" y2="1.5"/>
        <line class="cls-1" x1="157.4" y1="63.51" x2="126.4" y2="32.51"/>
        <line class="cls-1" x1="188.41" y1="32.51" x2="157.4" y2="63.51"/>
        <line class="cls-1" x1="188.41" y1="1.5" x2="126.4" y2="63.51"/>
        <line class="cls-1" x1="157.4" y1="1.5" x2="126.4" y2="32.51"/>
      </g>
      <g id="c-5" data-name="c">
        <line class="cls-1" x1="375.24" y1="33.05" x2="344.23" y2="2.04"/>
        <line class="cls-1" x1="375.24" y1="64.05" x2="313.23" y2="2.04"/>
        <line class="cls-1" x1="344.23" y1="64.05" x2="313.23" y2="33.05"/>
        <line class="cls-1" x1="375.24" y1="33.05" x2="344.23" y2="64.05"/>
        <line class="cls-1" x1="375.24" y1="2.04" x2="313.23" y2="64.05"/>
        <line class="cls-1" x1="344.23" y1="2.04" x2="313.23" y2="33.05"/>
      </g>
      <g id="c-6" data-name="c">
        <line class="cls-1" x1="313.31" y1="32.51" x2="282.3" y2="1.5"/>
        <line class="cls-1" x1="313.31" y1="63.51" x2="251.3" y2="1.5"/>
        <line class="cls-1" x1="282.3" y1="63.51" x2="251.3" y2="32.51"/>
        <line class="cls-1" x1="313.31" y1="32.51" x2="282.3" y2="63.51"/>
        <line class="cls-1" x1="313.31" y1="1.5" x2="251.3" y2="63.51"/>
        <line class="cls-1" x1="282.3" y1="1.5" x2="251.3" y2="32.51"/>
      </g>
      <g id="c-7" data-name="c">
        <line class="cls-1" x1="500.14" y1="33.05" x2="469.13" y2="2.04"/>
        <line class="cls-1" x1="500.14" y1="64.05" x2="438.13" y2="2.04"/>
        <line class="cls-1" x1="469.13" y1="64.05" x2="438.13" y2="33.05"/>
        <line class="cls-1" x1="500.14" y1="33.05" x2="469.13" y2="64.05"/>
        <line class="cls-1" x1="500.14" y1="2.04" x2="438.13" y2="64.05"/>
        <line class="cls-1" x1="469.13" y1="2.04" x2="438.13" y2="33.05"/>
      </g>
      <g id="c-8" data-name="c">
        <line class="cls-1" x1="438.21" y1="32.51" x2="407.2" y2="1.5"/>
        <line class="cls-1" x1="438.21" y1="63.51" x2="376.2" y2="1.5"/>
        <line class="cls-1" x1="407.2" y1="63.51" x2="376.2" y2="32.51"/>
        <line class="cls-1" x1="438.21" y1="32.51" x2="407.2" y2="63.51"/>
        <line class="cls-1" x1="438.21" y1="1.5" x2="376.2" y2="63.51"/>
        <line class="cls-1" x1="407.2" y1="1.5" x2="376.2" y2="32.51"/>
      </g>
      <g id="c-9" data-name="c">
        <line class="cls-1" x1="625.04" y1="33.05" x2="594.03" y2="2.04"/>
        <line class="cls-1" x1="625.04" y1="64.05" x2="563.03" y2="2.04"/>
        <line class="cls-1" x1="594.03" y1="64.05" x2="563.03" y2="33.05"/>
        <line class="cls-1" x1="625.04" y1="33.05" x2="594.03" y2="64.05"/>
        <line class="cls-1" x1="625.04" y1="2.04" x2="563.03" y2="64.05"/>
        <line class="cls-1" x1="594.03" y1="2.04" x2="563.03" y2="33.05"/>
      </g>
      <g id="c-10" data-name="c">
        <line class="cls-1" x1="563.11" y1="32.51" x2="532.1" y2="1.5"/>
        <line class="cls-1" x1="563.11" y1="63.51" x2="501.1" y2="1.5"/>
        <line class="cls-1" x1="532.1" y1="63.51" x2="501.1" y2="32.51"/>
        <line class="cls-1" x1="563.11" y1="32.51" x2="532.1" y2="63.51"/>
        <line class="cls-1" x1="563.11" y1="1.5" x2="501.1" y2="63.51"/>
        <line class="cls-1" x1="532.1" y1="1.5" x2="501.1" y2="32.51"/>
      </g>
      <g id="c-11" data-name="c">
        <line class="cls-1" x1="749.93" y1="33.05" x2="718.93" y2="2.04"/>
        <line class="cls-1" x1="749.93" y1="64.05" x2="687.92" y2="2.04"/>
        <line class="cls-1" x1="718.93" y1="64.05" x2="687.92" y2="33.05"/>
        <line class="cls-1" x1="749.93" y1="33.05" x2="718.93" y2="64.05"/>
        <line class="cls-1" x1="749.93" y1="2.04" x2="687.92" y2="64.05"/>
        <line class="cls-1" x1="718.93" y1="2.04" x2="687.92" y2="33.05"/>
      </g>
      <g id="c-12" data-name="c">
        <line class="cls-1" x1="688" y1="32.51" x2="657" y2="1.5"/>
        <line class="cls-1" x1="688" y1="63.51" x2="625.99" y2="1.5"/>
        <line class="cls-1" x1="657" y1="63.51" x2="625.99" y2="32.51"/>
        <line class="cls-1" x1="688" y1="32.51" x2="657" y2="63.51"/>
        <line class="cls-1" x1="688" y1="1.5" x2="625.99" y2="63.51"/>
        <line class="cls-1" x1="657" y1="1.5" x2="625.99" y2="32.51"/>
      </g>
      <g id="c-13" data-name="c">
        <line class="cls-1" x1="874.83" y1="33.05" x2="843.83" y2="2.04"/>
        <line class="cls-1" x1="874.83" y1="64.05" x2="812.82" y2="2.04"/>
        <line class="cls-1" x1="843.83" y1="64.05" x2="812.82" y2="33.05"/>
        <line class="cls-1" x1="874.83" y1="33.05" x2="843.83" y2="64.05"/>
        <line class="cls-1" x1="874.83" y1="2.04" x2="812.82" y2="64.05"/>
        <line class="cls-1" x1="843.83" y1="2.04" x2="812.82" y2="33.05"/>
      </g>
      <g id="c-14" data-name="c">
        <line class="cls-1" x1="812.9" y1="32.51" x2="781.9" y2="1.5"/>
        <line class="cls-1" x1="812.9" y1="63.51" x2="750.89" y2="1.5"/>
        <line class="cls-1" x1="781.9" y1="63.51" x2="750.89" y2="32.51"/>
        <line class="cls-1" x1="812.9" y1="32.51" x2="781.9" y2="63.51"/>
        <line class="cls-1" x1="812.9" y1="1.5" x2="750.89" y2="63.51"/>
        <line class="cls-1" x1="781.9" y1="1.5" x2="750.89" y2="32.51"/>
      </g>
      <g id="c-15" data-name="c">
        <line class="cls-1" x1="999.73" y1="33.05" x2="968.73" y2="2.04"/>
        <line class="cls-1" x1="999.73" y1="64.05" x2="937.72" y2="2.04"/>
        <line class="cls-1" x1="968.73" y1="64.05" x2="937.72" y2="33.05"/>
        <line class="cls-1" x1="999.73" y1="33.05" x2="968.73" y2="64.05"/>
        <line class="cls-1" x1="999.73" y1="2.04" x2="937.72" y2="64.05"/>
        <line class="cls-1" x1="968.73" y1="2.04" x2="937.72" y2="33.05"/>
      </g>
      <g id="c-16" data-name="c">
        <line class="cls-1" x1="937.8" y1="32.51" x2="906.8" y2="1.5"/>
        <line class="cls-1" x1="937.8" y1="63.51" x2="875.79" y2="1.5"/>
        <line class="cls-1" x1="906.8" y1="63.51" x2="875.79" y2="32.51"/>
        <line class="cls-1" x1="937.8" y1="32.51" x2="906.8" y2="63.51"/>
        <line class="cls-1" x1="937.8" y1="1.5" x2="875.79" y2="63.51"/>
        <line class="cls-1" x1="906.8" y1="1.5" x2="875.79" y2="32.51"/>
      </g>
      <g id="c-17" data-name="c">
        <line class="cls-1" x1="1124.63" y1="33.05" x2="1093.63" y2="2.04"/>
        <line class="cls-1" x1="1124.63" y1="64.05" x2="1062.62" y2="2.04"/>
        <line class="cls-1" x1="1093.63" y1="64.05" x2="1062.62" y2="33.05"/>
        <line class="cls-1" x1="1124.63" y1="33.05" x2="1093.63" y2="64.05"/>
        <line class="cls-1" x1="1124.63" y1="2.04" x2="1062.62" y2="64.05"/>
        <line class="cls-1" x1="1093.63" y1="2.04" x2="1062.62" y2="33.05"/>
      </g>
      <g id="c-18" data-name="c">
        <line class="cls-1" x1="1062.7" y1="32.51" x2="1031.7" y2="1.5"/>
        <line class="cls-1" x1="1062.7" y1="63.51" x2="1000.69" y2="1.5"/>
        <line class="cls-1" x1="1031.7" y1="63.51" x2="1000.69" y2="32.51"/>
        <line class="cls-1" x1="1062.7" y1="32.51" x2="1031.7" y2="63.51"/>
        <line class="cls-1" x1="1062.7" y1="1.5" x2="1000.69" y2="63.51"/>
        <line class="cls-1" x1="1031.7" y1="1.5" x2="1000.69" y2="32.51"/>
      </g>
      <g id="c-19" data-name="c">
        <line class="cls-1" x1="1187.6" y1="32.51" x2="1156.6" y2="1.5"/>
        <line class="cls-1" x1="1187.6" y1="63.51" x2="1125.59" y2="1.5"/>
        <line class="cls-1" x1="1156.6" y1="63.51" x2="1125.59" y2="32.51"/>
        <line class="cls-1" x1="1187.6" y1="32.51" x2="1156.6" y2="63.51"/>
        <line class="cls-1" x1="1187.6" y1="1.5" x2="1125.59" y2="63.51"/>
        <line class="cls-1" x1="1156.6" y1="1.5" x2="1125.59" y2="32.51"/>
      </g>
    </g>
  </g>
</svg>