<?xml version="1.0" encoding="UTF-8"?>
<svg id="b" data-name="Layer 2" xmlns="http://www.w3.org/2000/svg" viewBox="0 0 27.17 27.17">
  <g id="c" data-name="Layer 1">
    <g>
      <rect width="27.17" height="27.17" style="fill: #08589e; stroke-width: 0px;"/>
      <rect x="3.58" y="7.58" width="3" height="3" style="fill: #2b8cbe; stroke-width: 0px;"/>
      <rect x="3.58" y="12.08" width="3" height="3" style="fill: #ccebc5; stroke-width: 0px;"/>
      <rect x="7.58" y="3.58" width="3" height="3" style="fill: #2b8cbe; stroke-width: 0px;"/>
      <rect x="12.08" y="3.58" width="3" height="3" style="fill: #ccebc5; stroke-width: 0px;"/>
      <rect x="16.58" y="3.58" width="3" height="3" style="fill: #2b8cbe; stroke-width: 0px;"/>
      <rect x="7.58" y="20.58" width="3" height="3" style="fill: #2b8cbe; stroke-width: 0px;"/>
      <rect x="16.58" y="20.58" width="3" height="3" style="fill: #2b8cbe; stroke-width: 0px;"/>
      <rect x="20.58" y="12.08" width="3" height="3" style="fill: #ccebc5; stroke-width: 0px;"/>
      <rect x="3.58" y="16.58" width="3" height="3" style="fill: #2b8cbe; stroke-width: 0px;"/>
      <rect x="12.08" y="20.58" width="3" height="3" style="fill: #ccebc5; stroke-width: 0px;"/>
      <rect x="20.58" y="7.58" width="3" height="3" style="fill: #2b8cbe; stroke-width: 0px;"/>
      <rect x="20.58" y="16.58" width="3" height="3" style="fill: #2b8cbe; stroke-width: 0px;"/>
      <rect x="7.58" y="7.58" width="12" height="12" style="fill: #7bccc4; stroke-width: 0px;"/>
      <rect x="15.08" y="15.08" width="3" height="3" style="fill: #08589e; stroke-width: 0px;"/>
      <rect x="15.08" y="9.08" width="3" height="3" style="fill: #08589e; stroke-width: 0px;"/>
      <rect x="9.08" y="9.08" width="3" height="3" style="fill: #08589e; stroke-width: 0px;"/>
      <rect x="9.08" y="14.83" width="3" height="3" style="fill: #08589e; stroke-width: 0px;"/>
      <rect x="12.08" y="12.08" width="3" height="3" style="fill: #08589e; stroke-width: 0px;"/>
    </g>
  </g>
</svg>